<svg xmlns="http://www.w3.org/2000/svg" width="315" height="302"><g fill="#8b92ff"><path d="M141.7 12.1c-63.4 7.3-112 50.6-124.8 111.2a160 160 0 0 0-.6 50.3c1.9 10.6 7.4 26.8 12.4 36.8a142.8 142.8 0 0 0 92.6 72.6c47.3 11.9 94 .6 130.3-31.7l5.9-5.3-8.9 3.6c-25.5 10.4-91 17.2-114.6 12-38.8-8.5-69.6-32-85-64.9A109.9 109.9 0 0 1 57.4 88a129 129 0 0 1 49.1-42c8-3.7 23.6-9.2 24.2-8.6a24 24 0 0 1-5.9 4.7c-24.5 16.5-56.1 59.2-62.7 84.9a92.5 92.5 0 0 0-2.1 33.5c5.4 43.1 39.5 76.3 85.5 83.1 10.4 1.6 13.5 1.7 29.8.5 29.4-2 49.5-4.1 59.7-6.1a86.6 86.6 0 0 0 32.7-14.9c22.2-17.6 34.9-52.7 31.5-86.9a132 132 0 0 0-43-86.4 145 145 0 0 0-114.5-37.7zM181.1 37a121.4 121.4 0 0 1 75.2 49.2c17.5 24.7 23.5 59 15.2 87.3-7.8 26.6-20.3 39.3-42.5 43-11.5 2-40 4.4-59.5 5.2-19.8.7-28.6-.8-42.2-7.2a71.1 71.1 0 0 1-43-60.5 74.3 74.3 0 0 1 16.7-49.7c4.6-5.7 5.2-6.9 6.5-14.8A67.8 67.8 0 0 1 142 39c8.4-4.4 23.7-5.1 39.1-2z"/><path d="M149.8 55.1c-7.3 2.1-16.8 12.9-22.3 25.3l-2.4 5.4 5.3-2.3a76.6 76.6 0 0 1 54.8-.5 74.9 74.9 0 0 1 43.2 48.1c2.4 9.6 2.1 25-.5 33.5a73.7 73.7 0 0 1-27.2 38l-2.9 2 9.4-.8c21.3-1.9 29.6-5.3 35.8-14.9a82.7 82.7 0 0 0 2.4-81.2A97.2 97.2 0 0 0 164 54.5c-5.8-.2-12.2 0-14.2.6z"/></g></svg>
