<svg xmlns="http://www.w3.org/2000/svg" width="1445" height="577" viewBox="0 0 1445 577">
<g transform="translate(0,577) scale(0.1,-0.1)" fill="#299764">
<path d="M2450 5209 c-419 -31 -825 -166 -1145 -381 -600 -404 -982 -1100
-1012 -1848 -32 -818 336 -1583 972 -2021 231 -159 348 -219 568 -293 162 -55
255 -79 423 -108 111 -19 163 -22 369 -22 257 1 355 13 578 69 298 76 657 265
899 475 112 97 188 170 176 170 -4 0 -51 -22 -105 -50 -202 -102 -383 -153
-708 -199 -541 -78 -950 -96 -1189 -52 -230 41 -526 160 -732 293 -167 108
-367 307 -507 506 -196 278 -319 623 -349 981 -33 396 90 875 314 1223 52 81
175 235 253 317 128 134 364 298 575 398 109 52 300 118 321 111 7 -2 -24 -26
-67 -53 -255 -157 -524 -448 -744 -805 -227 -368 -326 -654 -337 -970 -18
-506 171 -967 535 -1305 226 -209 540 -359 862 -410 275 -44 1163 20 1495 107
334 88 642 307 783 558 72 128 162 411 206 646 92 498 -10 1061 -279 1534
-135 238 -370 507 -580 665 -79 60 -267 176 -365 225 -252 127 -574 214 -892
240 -126 11 -166 11 -318 -1z m560 -438 c261 -54 465 -138 680 -282 294 -197
481 -411 648 -744 78 -156 148 -399 171 -590 16 -130 13 -361 -5 -484 -85
-578 -273 -854 -659 -969 -188 -56 -503 -86 -1035 -98 -289 -7 -355 1 -541 60
-275 88 -559 320 -707 578 -54 96 -120 270 -143 383 -35 168 -24 400 26 597
36 136 143 338 255 483 44 56 48 65 54 136 12 142 80 350 161 494 88 159 239
306 390 382 59 30 186 77 235 87 14 2 93 3 175 1 116 -3 183 -11 295 -34z"/>
<path d="M2500 4494 c-82 -22 -135 -53 -194 -110 -69 -68 -111 -133 -186 -284
-63 -129 -75 -166 -42 -138 29 27 171 87 266 114 72 21 121 27 235 31 234 9
408 -27 581 -119 236 -125 399 -286 530 -523 193 -350 180 -830 -32 -1175 -67
-109 -280 -330 -370 -383 l-63 -37 38 0 c50 0 315 37 402 57 156 35 266 95
329 181 116 159 214 487 223 747 20 565 -252 1095 -718 1398 -285 186 -769
303 -999 241z"/>
<path d="M13050 5026 c-149 -43 -241 -144 -270 -297 -30 -152 61 -324 209
-396 50 -25 67 -28 156 -28 82 0 111 4 159 24 71 28 161 115 195 185 85 182 4
394 -186 488 -52 25 -79 32 -141 34 -43 2 -97 -2 -122 -10z"/>
<path d="M6230 4009 c-296 -37 -589 -181 -774 -380 -74 -81 -119 -164 -135
-254 -7 -40 -12 -452 -13 -1242 l-3 -1181 60 -4 c33 -2 179 -1 325 2 l265 5 1
945 c1 1054 -1 1010 71 1140 45 80 141 176 214 213 66 33 196 67 257 67 81 0
198 -39 277 -91 115 -77 189 -183 225 -324 19 -76 20 -110 20 -1022 l0 -943
325 0 324 0 3 952 3 953 23 62 c12 34 36 86 52 116 l30 55 -37 48 c-282 370
-553 624 -798 748 -224 112 -492 163 -715 135z"/>
<path d="M8101 4009 c-164 -19 -337 -73 -518 -160 l-83 -40 116 -117 c132
-132 250 -269 315 -366 24 -36 48 -66 53 -66 5 0 38 11 73 25 248 99 540 -34
642 -293 38 -96 41 -174 41 -1129 l0 -925 318 5 317 5 0 1028 c0 950 -1 1036
-18 1117 -74 362 -301 653 -629 807 -218 102 -406 134 -627 109z"/>
<path d="M11005 4010 c-142 -19 -322 -79 -490 -162 -67 -34 -77 -42 -63 -52 9
-6 56 -38 103 -71 181 -125 374 -290 451 -386 l29 -37 58 11 c195 36 424 -92
528 -295 60 -119 59 -98 60 -1127 l0 -941 325 0 325 0 -4 1037 c-3 1024 -3
1039 -24 1118 -135 504 -511 832 -1038 905 -80 11 -174 11 -260 0z"/>
<path d="M12828 2578 c1 -761 3 -1439 5 -1506 l2 -124 317 -1 318 -2 0 1508 0
1507 -322 0 -323 0 3 -1382z"/>
<path d="M10121 3523 c-141 -189 -221 -388 -241 -600 -6 -62 -10 -494 -10
-1039 l0 -934 28 -1 c15 -1 161 -1 324 -1 l298 1 3 928 c2 861 4 932 21 988
33 111 77 186 154 264 67 67 72 74 55 86 -10 7 -54 43 -98 80 -105 88 -437
335 -450 335 -3 0 -41 -48 -84 -107z"/>
</g>
</svg>
